<?xml version="1.0" encoding="utf-8"?>
<!-- Generator: Adobe Illustrator 16.0.0, SVG Export Plug-In . SVG Version: 6.00 Build 0)  -->
<!DOCTYPE svg PUBLIC "-//W3C//DTD SVG 1.1 Tiny//EN" "http://www.w3.org/Graphics/SVG/1.1/DTD/svg11-tiny.dtd">
<svg version="1.1" baseProfile="tiny" xmlns="http://www.w3.org/2000/svg" xmlns:xlink="http://www.w3.org/1999/xlink" x="0px"
	 y="0px" width="110px" height="110px" viewBox="0 0 110 110" xml:space="preserve">
<g id="Notes">
</g>
<g id="Frontpage_A">
	<g id="Slides">
	</g>
</g>
<g id="Frontpage_B">
	<g id="Slides_copy">
	</g>
	<path fill="#D8462D" d="M51.636,8.17c-1.571,0-2.845,1.087-2.845,2.433c0,0.004,0.002,0.004,0.002,0.01l2.849,31.574
		c0,1.342-1.274,2.426-2.849,2.426c-1.571,0-2.846-1.084-2.846-2.426L44.524,8.17c0-1.346-1.27-2.435-2.843-2.435
		c-1.573,0-2.845,1.089-2.845,2.435l1.424,34.017c0,1.342-1.272,2.426-2.845,2.426c-1.574,0-2.844-1.084-2.844-2.426L35.995,8.17
		c0-1.346-1.271-2.435-2.842-2.435c-1.575,0-2.847,1.089-2.847,2.435l-1.424,34.017c0,1.342-1.274,2.426-2.842,2.426
		c-1.575,0-2.846-1.084-2.846-2.426H23.19l2.85-31.584c0-1.346-1.272-2.433-2.843-2.433c-1.572,0-2.848,1.087-2.848,2.433
		L17.5,42.187v4.858c0,7.74,6.061,14.263,14.341,16.321L34.572,105h5.689l2.728-41.634c8.283-2.06,14.34-8.581,14.34-16.321v-4.858
		l-2.848-31.584C54.481,9.257,53.208,8.17,51.636,8.17z"/>
	<path fill="#D8462D" d="M92.5,67.951C92.5,46.613,83.042,5,72.077,5c0,0-0.492,17.296-0.492,38.635
		c0,4.684,0.055,10.083,0.164,15.559h-0.164L71.583,105h5.689l4.265-20.231C86.597,82.637,92.5,81.493,92.5,67.951z"/>
</g>
</svg>
