<?xml version="1.0" encoding="utf-8"?>
<!-- Generator: Adobe Illustrator 16.0.0, SVG Export Plug-In . SVG Version: 6.00 Build 0)  -->
<!DOCTYPE svg PUBLIC "-//W3C//DTD SVG 1.1 Tiny//EN" "http://www.w3.org/Graphics/SVG/1.1/DTD/svg11-tiny.dtd">
<svg version="1.1" baseProfile="tiny" xmlns="http://www.w3.org/2000/svg" xmlns:xlink="http://www.w3.org/1999/xlink" x="0px"
	 y="0px" width="100px" height="100px" viewBox="0 0 100 100" xml:space="preserve">
<g id="Notes">
</g>
<g id="Frontpage_A">
	<g id="Slides">
	</g>
</g>
<g id="Frontpage_B">
	<g id="Slides_copy">
	</g>
	<path fill="#D8462D" stroke="#D8462D" stroke-width="6" stroke-miterlimit="10" d="M94.203,39.861
		c-1.03-3.195-3.884-3.907-7.605-3.907l-22.113-0.015l-8.449-24.353C55.031,8.226,53.333,5.5,50,5.5s-5.029,2.726-6.035,6.087
		l-8.449,24.353l-22.113,0.015c-3.179,0-6.575,0.712-7.605,3.907c-1.03,3.199,0.705,6.632,3.876,7.672l19.6,10.312l-8.026,26.989
		c-1.122,3.005-1.361,6.525,1.335,8.503c2.696,1.976,6.47,1.373,8.43-1.346c0-0.002,0.001-0.003,0.002-0.004L50,74.603
		l18.986,17.385c0.001,0.001,0.001,0.002,0.002,0.004c1.96,2.719,5.733,3.321,8.43,1.346c2.696-1.978,2.892-5.377,1.335-8.503
		l-8.026-28.206l19.6-9.095C93.498,46.493,95.233,43.061,94.203,39.861z"/>
</g>
</svg>
