<?xml version="1.0" encoding="utf-8"?>
<!-- Generator: Adobe Illustrator 16.0.0, SVG Export Plug-In . SVG Version: 6.00 Build 0)  -->
<!DOCTYPE svg PUBLIC "-//W3C//DTD SVG 1.1 Tiny//EN" "http://www.w3.org/Graphics/SVG/1.1/DTD/svg11-tiny.dtd">
<svg version="1.1" baseProfile="tiny" xmlns="http://www.w3.org/2000/svg" xmlns:xlink="http://www.w3.org/1999/xlink" x="0px"
	 y="0px" width="100px" height="100px" viewBox="0 0 100 100" xml:space="preserve">
<g id="Notes">
</g>
<g id="Frontpage_A">
	<g id="Slides">
	</g>
</g>
<g id="Frontpage_B">
	<g id="Slides_copy">
	</g>
	<path fill="#D8462D" d="M97.058,38.94c-1.93-5.986-8.127-5.986-10.458-5.986l-19.98-0.014L58.89,10.663
		C56.853,3.918,52.934,2.5,50,2.5c-2.932,0-6.849,1.419-8.89,8.162L33.381,32.94l-19.979,0.014c-7.05,0-9.58,3.256-10.461,5.987
		c-1.504,4.67,0.973,9.701,5.535,11.353l17.218,9.059l-7.295,24.532c-1.857,5.062-0.981,9.385,2.41,11.872
		c1.557,1.141,3.395,1.743,5.315,1.743c2.78,0,5.418-1.299,7.123-3.49L50,78.67l16.753,15.34c1.705,2.191,4.343,3.489,7.123,3.49
		c0,0,0,0,0,0c1.921,0,3.759-0.603,5.316-1.744c3.646-2.675,4.564-7.358,2.375-11.994l-7.253-25.491l17.132-7.949
		C96.058,48.699,98.571,43.638,97.058,38.94z"/>
	<path fill="#FFFEEE" d="M71.741,90.614c0.564,0.567,1.319,0.886,2.135,0.886c0.637,0,1.249-0.202,1.769-0.583
		c1.842-1.351,0.91-3.769,0.423-4.746l-0.124-0.248l-8.803-30.938l22.251-10.303c1.602-0.525,2.479-2.275,1.955-3.901
		c-0.249-0.771-0.589-1.827-4.75-1.827l-24.249-0.016L53.16,12.445C51.981,8.5,50.593,8.5,50,8.5v62.035l21.708,19.943
		L71.741,90.614z"/>
</g>
</svg>
