<?xml version="1.0" encoding="utf-8"?>
<!-- Generator: Adobe Illustrator 16.0.0, SVG Export Plug-In . SVG Version: 6.00 Build 0)  -->
<!DOCTYPE svg PUBLIC "-//W3C//DTD SVG 1.1 Tiny//EN" "http://www.w3.org/Graphics/SVG/1.1/DTD/svg11-tiny.dtd">
<svg version="1.1" baseProfile="tiny" xmlns="http://www.w3.org/2000/svg" xmlns:xlink="http://www.w3.org/1999/xlink" x="0px"
	 y="0px" width="350px" height="100px" viewBox="0 0 350 100" xml:space="preserve">
<g id="Notes">
</g>
<g id="Frontpage_A">
	<g id="Slides">
	</g>
</g>
<g id="Frontpage_B">
	<g id="Slides_copy">
	</g>
	<path fill="#FFFEEE" d="M183.616,44.277h-11.823v-33.59h11.823c13.448,0,19.106,7.558,19.106,16.795S197.064,44.277,183.616,44.277
		z M183.281,16.174h-4.651v22.617h4.651c9.189,0,12.439-4.59,12.439-11.308S192.47,16.174,183.281,16.174z"/>
	<path fill="#FFFEEE" d="M205.131,44.277v-33.59h6.835v33.59H205.131z"/>
	<path fill="#FFFEEE" d="M239.702,44.277l-17.594-22.169v22.169h-6.107v-33.59h4.763l17.594,22.169V10.688h6.107v33.59H239.702z"/>
	<path fill="#FFFEEE" d="M248.555,44.277v-33.59h21.908v5.318H255.39V23.9h12.271v5.318H255.39v9.741h15.073v5.318H248.555z"/>
	<path fill="#FFFEEE" d="M281.59,44.277v-33.59h6.835v33.59H281.59z"/>
	<path fill="#FFFEEE" d="M316.162,44.277l-17.594-22.169v22.169h-6.107v-33.59h4.762l17.594,22.169V10.688h6.108v33.59H316.162z"/>
	<path fill="#FFFEEE" d="M172.369,84.931V51.341h6.835v28.271h15.072v5.318H172.369z"/>
	<path fill="#FFFEEE" d="M228.032,56.66v28.271h-6.836V56.66h-10.377l-1.996-5.318h29.585v5.318H228.032z"/>
	<path fill="#FFFEEE" d="M241.602,84.931V51.341h21.909v5.318h-15.073v7.894h12.271v5.318h-12.271v9.741h15.073v5.318H241.602z"/>
	<path fill="#FFFEEE" d="M290.572,85.323c-4.035,0-7.285-1.735-9.693-6.606l-3.586-7.166h-3.922v13.38h-6.836V51.341h13.224
		c7.956,0,11.374,4.703,11.374,10.132c0,4.759-2.689,8.454-7.396,9.518l3.306,5.767c1.681,2.911,3.25,3.918,5.603,3.918
		c0.672,0,1.232-0.056,1.905-0.28v4.311C293.261,85.099,291.804,85.323,290.572,85.323z M273.37,66.736h5.267
		c4.258,0,5.771-2.239,5.771-5.207c0-3.023-1.513-5.318-5.771-5.318h-5.267V66.736z"/>
	<path fill="#FFFEEE" d="M203.334,51.341h-5.323l-10.764,25.304h6.505h13.616l3.417,8.286h6.836L203.334,51.341z M195.602,71.886
		l4.986-12.204l4.931,12.204H195.602z"/>
	<path fill="#FFFEEE" d="M55.738,10.151c-0.629,0-1.14,0.557-1.14,1.246c0,0.003,0.001,0.004,0.001,0.006v17.428
		c0,0.688-0.51,1.245-1.141,1.245c-0.629,0-1.139-0.557-1.139-1.245V11.396c0-0.688-0.509-1.246-1.139-1.246s-1.14,0.557-1.14,1.246
		v17.434c0,0.688-0.51,1.245-1.139,1.245c-0.63,0-1.14-0.557-1.14-1.245V11.396c0-0.688-0.509-1.246-1.138-1.246
		c-0.631,0-1.142,0.557-1.142,1.246v17.434c0,0.688-0.51,1.245-1.138,1.245c-0.63,0-1.139-0.557-1.139-1.245h-0.001V11.396
		c0-0.688-0.511-1.246-1.139-1.246c-0.629,0-1.14,0.557-1.14,1.246v17.434v2.49c0,3.968,2.427,7.309,5.745,8.365l1.092,50.163h2.279
		l1.093-50.163c3.318-1.056,5.744-4.398,5.744-8.365v-2.49V11.396C56.877,10.708,56.367,10.151,55.738,10.151z"/>
	<path fill="#FFFEEE" d="M149.838,41.958c0-10.884-2.917-32.11-7.76-32.11c0,0-0.217,8.823-0.217,19.707
		c0,2.389,0.024,5.143,0.073,7.937h-0.073l1.256,52.055h2.513l0.945-39.162C148.73,49.379,149.838,48.539,149.838,41.958z"/>
	<path fill="#FFFEEE" d="M99.254,14.128v35.233L88.738,67.559l-2.59-1.494l10.114-17.504V14.134
		C77.73,14.968,62.961,30.239,62.961,48.961c0,19.257,15.624,34.868,34.898,34.868s34.898-15.611,34.898-34.868
		C132.757,30.171,117.88,14.861,99.254,14.128z"/>
</g>
</svg>
