<?xml version="1.0" encoding="utf-8"?>
<!-- Generator: Adobe Illustrator 16.0.0, SVG Export Plug-In . SVG Version: 6.00 Build 0)  -->
<!DOCTYPE svg PUBLIC "-//W3C//DTD SVG 1.1 Tiny//EN" "http://www.w3.org/Graphics/SVG/1.1/DTD/svg11-tiny.dtd">
<svg version="1.1" baseProfile="tiny" xmlns="http://www.w3.org/2000/svg" xmlns:xlink="http://www.w3.org/1999/xlink" x="0px"
	 y="0px" width="110px" height="110px" viewBox="0 0 110 110" xml:space="preserve">
<g id="Notes">
</g>
<g id="Frontpage_A">
	<g id="Slides">
	</g>
</g>
<g id="Frontpage_B">
	<g id="Slides_copy">
	</g>
	<path fill="#D8462D" d="M72.959,72.675l-6.605,6.558c-5.484,5.442-16.128-1.414-24.963-10.137c-8.909-8.8-15.963-19.512-10.434-25
		l6.606-6.56c1.841-1.827,3.142-2.657,4.266-2.786L22.674,15.735c-0.132,1.115-0.968,2.406-2.808,4.234l-6.606,6.557
		C2.247,37.46,2.247,55.183,13.261,66.117l30.908,30.684c11.014,10.933,28.87,10.933,39.883,0l6.605-6.558
		c1.842-1.828,3.144-2.658,4.268-2.787L75.768,68.438C75.637,69.555,74.801,70.847,72.959,72.675z"/>
	<polygon fill="#D8462D" points="51.906,30.622 26.097,5 20.753,10.304 46.564,35.925 	"/>
	<polygon fill="#D8462D" points="105,83.326 79.19,57.706 73.848,63.009 99.658,88.629 	"/>
</g>
</svg>
